<?xml version="1.0" standalone="no"?>
<svg xmlns:xlink="http://www.w3.org/1999/xlink" id="wave" style="transform:rotate(180deg); transition: 0.3s" viewBox="0 0 1440 100" version="1.1" xmlns="http://www.w3.org/2000/svg"><defs><linearGradient id="sw-gradient-0" x1="0" x2="0" y1="1" y2="0"><stop stop-color="rgba(230, 230, 250, 1)" offset="0%"/><stop stop-color="rgba(230, 230, 250, 1)" offset="100%"/></linearGradient></defs><path style="transform:translate(0, 0px); opacity:1" fill="url(#sw-gradient-0)" d="M0,10L26.7,16.7C53.3,23,107,37,160,40C213.3,43,267,37,320,43.3C373.3,50,427,70,480,66.7C533.3,63,587,37,640,35C693.3,33,747,57,800,60C853.3,63,907,47,960,36.7C1013.3,27,1067,23,1120,26.7C1173.3,30,1227,40,1280,45C1333.3,50,1387,50,1440,45C1493.3,40,1547,30,1600,23.3C1653.3,17,1707,13,1760,13.3C1813.3,13,1867,17,1920,28.3C1973.3,40,2027,60,2080,58.3C2133.3,57,2187,33,2240,21.7C2293.3,10,2347,10,2400,21.7C2453.3,33,2507,57,2560,68.3C2613.3,80,2667,80,2720,80C2773.3,80,2827,80,2880,71.7C2933.3,63,2987,47,3040,36.7C3093.3,27,3147,23,3200,31.7C3253.3,40,3307,60,3360,61.7C3413.3,63,3467,47,3520,33.3C3573.3,20,3627,10,3680,20C3733.3,30,3787,60,3813,75L3840,90L3840,100L3813.3,100C3786.7,100,3733,100,3680,100C3626.7,100,3573,100,3520,100C3466.7,100,3413,100,3360,100C3306.7,100,3253,100,3200,100C3146.7,100,3093,100,3040,100C2986.7,100,2933,100,2880,100C2826.7,100,2773,100,2720,100C2666.7,100,2613,100,2560,100C2506.7,100,2453,100,2400,100C2346.7,100,2293,100,2240,100C2186.7,100,2133,100,2080,100C2026.7,100,1973,100,1920,100C1866.7,100,1813,100,1760,100C1706.7,100,1653,100,1600,100C1546.7,100,1493,100,1440,100C1386.7,100,1333,100,1280,100C1226.7,100,1173,100,1120,100C1066.7,100,1013,100,960,100C906.7,100,853,100,800,100C746.7,100,693,100,640,100C586.7,100,533,100,480,100C426.7,100,373,100,320,100C266.7,100,213,100,160,100C106.7,100,53,100,27,100L0,100Z"/></svg>